<svg xmlns="http://www.w3.org/2000/svg" viewBox="0 0 800 420" fill="none">
  <defs>
    <linearGradient id="g3" x1="0" y1="0" x2="800" y2="420" gradientUnits="userSpaceOnUse">
      <stop stop-color="#1f7f61"/>
      <stop offset="1" stop-color="#0f3a2b"/>
    </linearGradient>
  </defs>
  <rect width="800" height="420" rx="24" fill="url(#g3)"/>
  <rect x="138" y="92" width="244" height="250" rx="12" fill="#e9f5ef"/>
  <rect x="420" y="122" width="242" height="220" rx="12" fill="#f2faf6"/>
  <rect x="174" y="126" width="44" height="44" rx="8" fill="#bfded1"/>
  <rect x="236" y="126" width="44" height="44" rx="8" fill="#bfded1"/>
  <rect x="298" y="126" width="44" height="44" rx="8" fill="#bfded1"/>
  <rect x="174" y="188" width="44" height="44" rx="8" fill="#bfded1"/>
  <rect x="236" y="188" width="44" height="44" rx="8" fill="#bfded1"/>
  <rect x="298" y="188" width="44" height="44" rx="8" fill="#bfded1"/>
  <rect x="474" y="170" width="132" height="18" rx="9" fill="#cadfd5"/>
  <rect x="474" y="206" width="164" height="18" rx="9" fill="#cadfd5"/>
  <circle cx="660" cy="88" r="30" fill="#c6a25f"/>
</svg>
